<?xml version="1.0" standalone="no"?>
<!DOCTYPE svg PUBLIC "-//W3C//DTD SVG 20010904//EN"
 "http://www.w3.org/TR/2001/REC-SVG-20010904/DTD/svg10.dtd">
<svg version="1.0" xmlns="http://www.w3.org/2000/svg"
 width="300.000000pt" height="429.000000pt" viewBox="0 0 300.000000 429.000000"
 preserveAspectRatio="xMidYMid meet">
<metadata>
Created by potrace 1.15, written by Peter Selinger 2001-2017
</metadata>
<g transform="translate(0.000000,429.000000) scale(0.100000,-0.100000)"
fill="#000000" stroke="none">
<path d="M164 4126 c-18 -8 -36 -27 -44 -45 -18 -44 -7 -159 24 -252 38 -116
169 -431 206 -495 18 -33 42 -75 53 -94 35 -63 77 -108 130 -141 69 -42 310
-126 400 -139 99 -15 247 -51 247 -60 0 -5 -5 -30 -10 -57 -85 -406 -105 -549
-105 -743 1 -191 6 -212 80 -329 24 -39 26 -50 20 -95 -3 -28 -16 -85 -27
-126 -33 -119 -48 -225 -54 -370 -6 -122 -4 -146 20 -250 56 -249 71 -405 43
-460 -7 -15 -36 -36 -72 -53 -33 -16 -95 -49 -138 -74 -69 -40 -78 -49 -75
-72 l3 -26 135 -5 c133 -5 332 3 369 15 31 10 23 136 -18 250 -42 120 -100
359 -112 464 -6 48 -10 145 -10 216 -1 111 3 148 29 255 17 69 35 150 42 181
10 52 14 57 42 63 57 11 97 7 107 -11 5 -10 16 -55 26 -101 9 -46 28 -115 41
-155 14 -40 37 -117 51 -172 31 -117 34 -212 14 -525 -16 -255 -24 -301 -61
-361 -39 -64 -38 -88 7 -134 48 -49 88 -65 166 -65 54 0 71 5 107 29 50 34 69
63 70 108 0 25 -10 43 -46 80 -61 64 -64 71 -64 146 0 58 -11 219 -25 382 -3
33 -10 119 -15 190 -4 72 -13 146 -20 165 -6 19 -22 80 -35 135 -13 55 -37
151 -54 214 l-31 113 34 34 c115 115 131 285 51 521 -53 153 -73 236 -86 349
-12 113 -4 278 16 297 12 13 39 22 475 161 129 41 256 84 283 96 103 46 203
154 399 430 93 130 148 230 148 266 0 49 -26 91 -64 104 -39 13 -68 3 -97 -34
-59 -74 -56 -73 -72 -52 -10 14 -21 17 -39 13 -25 -7 -26 -9 -21 -71 4 -48 0
-81 -15 -132 -35 -114 -195 -357 -265 -401 -42 -27 -220 -96 -278 -108 -19 -4
-47 -13 -64 -21 -16 -7 -57 -23 -90 -34 l-60 -21 41 43 c64 69 114 151 145
240 25 71 29 98 29 189 0 68 -6 125 -16 160 -17 58 -87 153 -149 202 -56 44
-176 96 -247 106 -65 9 -211 0 -285 -19 -95 -23 -168 -83 -215 -175 -30 -58
-78 -231 -78 -281 0 -14 -7 -27 -15 -31 -9 -3 -25 -24 -37 -46 -17 -34 -20
-53 -15 -110 5 -78 28 -115 112 -179 87 -66 150 -198 94 -198 -76 0 -473 111
-567 158 -88 44 -112 78 -165 242 -78 240 -89 320 -66 499 14 110 3 146 -41
138 -22 -5 -30 -2 -35 12 -3 11 -17 31 -32 45 -29 30 -78 34 -129 12z m92 -21
c28 -6 54 -62 54 -115 0 -34 3 -41 18 -38 10 2 17 13 18 29 1 32 12 51 24 44
6 -4 7 -39 3 -83 -11 -128 -6 -272 12 -342 9 -36 37 -126 61 -200 49 -151 76
-192 152 -235 55 -31 291 -110 374 -125 32 -6 79 -17 105 -25 26 -8 74 -17
105 -21 l58 -7 6 31 6 30 33 -19 c34 -20 39 -20 135 3 54 13 68 24 53 39 -9 9
-28 8 -77 -5 -36 -9 -70 -16 -76 -16 -6 0 -38 27 -71 60 -56 56 -73 80 -47 64
6 -4 16 0 23 9 10 14 17 14 70 1 69 -16 246 -19 322 -5 29 6 70 19 91 30 48
24 110 92 118 128 3 16 7 34 10 41 2 7 -2 27 -10 45 -34 81 -110 105 -219 69
-114 -37 -159 -44 -211 -32 -61 13 -131 54 -159 91 -19 27 -26 29 -84 29 -74
0 -71 -7 -43 121 54 243 172 332 440 333 92 1 114 -2 177 -27 99 -39 154 -78
213 -152 70 -88 82 -127 82 -262 0 -98 -4 -122 -27 -183 -32 -83 -89 -173
-151 -240 -50 -54 -114 -80 -196 -80 -48 0 -74 -12 -64 -29 19 -30 185 0 351
64 39 14 84 30 100 35 67 19 214 74 267 101 97 49 210 184 290 349 33 69 42
100 47 162 6 73 21 120 21 65 0 -36 17 -34 38 5 9 18 36 52 59 78 41 44 43 45
70 30 46 -25 49 -64 14 -143 -54 -120 -309 -461 -403 -538 -80 -66 -149 -93
-568 -219 -137 -42 -293 -94 -309 -104 -11 -7 -13 -42 -8 -195 6 -187 23 -297
62 -401 51 -135 64 -211 60 -342 -4 -123 -5 -130 -34 -172 -17 -24 -49 -60
-73 -79 -36 -30 -40 -37 -27 -49 13 -13 58 -169 124 -428 13 -52 27 -131 29
-175 3 -44 12 -154 20 -245 8 -91 15 -216 16 -279 1 -131 10 -158 69 -218 48
-49 52 -78 16 -121 -58 -69 -166 -78 -245 -21 -56 40 -58 63 -17 135 26 44 37
75 41 124 13 141 26 400 27 529 0 118 -5 162 -26 251 -2 8 -20 67 -40 130 -20
63 -46 160 -57 215 -12 55 -26 103 -31 107 -14 9 -174 5 -183 -5 -4 -4 -9 -24
-11 -45 -4 -34 -21 -119 -58 -277 -46 -195 -6 -538 101 -865 36 -110 51 -206
36 -228 -5 -8 -44 -17 -93 -22 -89 -9 -369 -2 -369 10 0 3 15 14 33 23 17 10
50 27 72 40 22 12 68 35 101 50 83 37 98 69 91 193 -6 87 -27 231 -47 303 -25
97 -37 196 -33 287 4 78 39 309 50 327 10 17 42 171 43 206 0 22 -13 55 -38
95 -48 77 -58 103 -72 193 -11 67 -10 105 6 268 8 79 47 304 86 490 40 194 40
191 5 187 -16 -2 -64 6 -107 18 -44 11 -92 20 -108 20 -75 0 -333 87 -424 142
-65 40 -94 78 -179 233 -15 28 -70 156 -123 286 -83 207 -96 246 -102 317 -4
44 -4 92 0 106 9 35 59 53 112 41z"/>
<path d="M1366 3696 c-8 -6 -18 -23 -21 -38 -5 -21 -1 -33 19 -52 31 -32 41
-32 71 -2 23 23 24 23 41 5 22 -24 66 -24 87 -1 21 23 22 66 1 86 -20 20 -78
21 -94 1 -8 -9 -17 -12 -24 -6 -19 14 -65 19 -80 7z"/>
<path d="M1814 3519 c-3 -6 5 -23 19 -37 33 -34 47 -72 47 -125 0 -37 -6 -47
-58 -98 -40 -38 -71 -59 -98 -65 -44 -11 -62 -44 -23 -44 71 0 201 114 213
187 10 56 -9 121 -47 161 -33 34 -42 38 -53 21z"/>
</g>
</svg>
