<?xml version="1.0" encoding="iso-8859-1"?>
<!-- Generator: Adobe Illustrator 19.0.0, SVG Export Plug-In . SVG Version: 6.00 Build 0)  -->
<svg version="1.1" id="Capa_1" xmlns="http://www.w3.org/2000/svg" xmlns:xlink="http://www.w3.org/1999/xlink" x="0px" y="0px"
	 viewBox="0 0 368.005 368.005" style="enable-background:new 0 0 368.005 368.005;" xml:space="preserve">
<polygon style="fill:#0F2E61;" points="360.005,184.003 152.005,360.003 8.005,360.003 216.005,184.003 8.005,8.003 152.005,8.003
	"/>
<path style="fill:#0F2E61;" d="M157.173,1.899c-1.44-1.224-3.28-1.896-5.168-1.896h-144c-3.36,0-6.36,2.096-7.512,5.248
	s-0.208,6.688,2.352,8.856l200.776,169.896L2.837,353.899c-2.56,2.168-3.504,5.704-2.352,8.856c1.16,3.152,4.16,5.248,7.52,5.248
	h144c1.888,0,3.728-0.672,5.168-1.896l208-176c1.792-1.52,2.832-3.752,2.832-6.104s-1.04-4.584-2.832-6.104L157.173,1.899z
	 M149.077,352.003H29.837l191.328-161.896c1.8-1.52,2.84-3.752,2.84-6.104s-1.04-4.584-2.832-6.104L29.837,16.003h119.232
	l198.544,168L149.077,352.003z"/>
<g>
</g>
<g>
</g>
<g>
</g>
<g>
</g>
<g>
</g>
<g>
</g>
<g>
</g>
<g>
</g>
<g>
</g>
<g>
</g>
<g>
</g>
<g>
</g>
<g>
</g>
<g>
</g>
<g>
</g>
</svg>
